<?xml version="1.0" encoding="UTF-8"?><svg id="Connecticut" xmlns="http://www.w3.org/2000/svg" xmlns:xlink="http://www.w3.org/1999/xlink" viewBox="0 0 150 150"><defs><style>.cls-1{fill:none;}.cls-2{clip-path:url(#clippath);}.cls-3{fill:#491113;fill-rule:evenodd;}</style><clipPath id="clippath"><rect class="cls-1" x="17.95" y="36.47" width="126.11" height="77.84"/></clipPath></defs><g id="Group_1001" transform="translate(0.357 0.001)"><g class="cls-2"><g id="Group_1000"><path id="Path_932" class="cls-3" d="M92.71,83.63v-5.87l-14.78,.38v-.57c-8.89,.02-21.69-1.29-28.14,0-.03-.16-.06-.31-.09-.47-1.15,.23-4.48-.79-5.31,.09,.16,.31-.48,.76-.38,1.32l-1.71,.19v-1.8l-18.1-.47c-1.3,0-5.82,.27-5.78-.66-.83-.58,1.12-7,1.52-7.96l6.63-24.62,52.49,1.7,11.84,.38c1.56,.02,4.04,.53,5.21-.09,.05-.73,1.13-1.11,1.52-1.99,.64,.05,1.28,.18,1.89,.38h.09c-.03-.85-.06-1.7-.09-2.56,1.25-2.2,2.29-.74,4.36-.86,.21-.91,.28-1.81,1.14-2.46l1.89-.28c1.08-.69,3.34-1.84,4.36,.28,.88-.12,.41-.51,1.32-.57v.1c-.15,.78-.12,1.6,.1,2.36h-.57l.19-.09v-.57c-.56,.26-1.07,.61-1.52,1.04,.18,.41,.27,.44,.57,.47,.15,.17,.4,.2,.95,.19l.09-.28c-.19-.25-.09-.36,0-.66h.09l.38,.28c.02,1.48,.82,3.99,.66,4.26-.59-.4-.54-.93-.95-1.8-.22,.23-.06,.09-.38,.09-.08,.25,.04,.33-.19,.19,.1,.31,.16,.63,.19,.95-.54-.1-.38-.16-.76,.09v.09l.66,.95c-.23,.04-.18,.09-.19,.57l.28,.09c.18-.31,.5-.52,.86-.57l.09,.19c.24,.1,.27,.31,.19,.66,.89,.01,1.73,.43,2.27,1.14l-.19,.19c-.21-.41-.26-.19-.57-.38l-.19,.57h-.28c.11-.62,.07-.48-.19-1.04l-.38,.38c-.37,.05-.19,.15-.47,.28,.43,.47,.79,1.02,1.04,1.61l.57-.38-.09-.66c.19,.23,.05,.04,.09,.28,.11,.05,.31,.09,.19,.38h.38c.2-.37,.27-.2,.47-.66-.31-.05-.04,.02-.19-.28v-.09h.09l1.32,.66c-.17-.98,1.18-1.72,1.61-1.99l.57,.09-.09,1.42,.19,.09,1.04-.28c-.17,.45-.02,1.45-.47,1.42-.86,.26-1.09,1.11-1.8,2.27l.19-.09c-.16,.36-.24,.41-.76,.47v-.28c.37-.18,.54-1.06,.57-1.04-.22-.32-.12-.12-.38-.28-.03,.23-.17,.2-.57,.28-.04,.66-.39,1.26-.95,1.61-.56-.21-1.77-.28-2.18,.57-.37-.18-.12-.2-.38-.19-.5,.03-3.27,1.34-3.7,1.14v.47l.66-.19c-.3,.59-1.11,1.03-.38,1.61,.06-.28,.55-.73,.47-1.04l.57,.28h.19c-.13,.66-1.39,2.61-2.37,2.65-.06-.32-.25-.15-.47-.28-.29,.21-.45,.31-.38,.47-.1,.3-.14,.63-.09,.95,.33,.08,.12-.11,.28,.19-.3,.08-.02-.01-.19,.28l.86-.09c.02,.2,.09,.4,.19,.57l-.09,.19c-.51-.48-.41-.3-1.14-.38,.08-.58-.02-1.18-.28-1.7l-.19,.09s-1.28,2.1-1.42,2.18c.18,.38,.17,.63,.76,.57v1.7h-.28c-.01-.38,.08-.2-.09-.47-.34,.18-.23,.1-.38,0-.37-.04,.03-.08-.38-.19,.14,.49,0,.47,.38,.76l.19-.19c-.03,.13-.06,.25-.09,.38l-.57-.09c.06,.33,.13,.33-.09,.57l.09-.19c-.39-.1-.93-.93-1.32-.76,.03-.61,.12-.74-.19-.95,.14,.55-.06,.56-.19,.95,.16,.01,.28,.47,.28,.47,.11,.24,.9,.51,1.23,.66-.36,.45-.64,.68-1.23,.57,.16,.39,.03,.37,.47,.57-.23,.31-.3,.34-.57,.38l.28,.76h.09v-.47h.38c.05,.26-.02,.12,.19,.38l.57-.38v.57c-.62-.1-.37-.06-.57,.28h.19l-.09,.19c.34,.07,.74,.86,1.14,.76,.72,.14,.85-.03,1.04-.57l.28,.19v.09c-.05,.44-.22,.87-.47,1.23h.38c.22-.31,.57-.52,.95-.57l.38,.19c.06-.36,.11-.45,.76-.47v.09c-.12,.44,.09,.34,0,.66h.57l-.09-.19c.07-.42-.07-.84-.38-1.14l.28-.28c-.02-.22-.14-1.19-.47-1.04,.18-.34,.14-.26,.57-.38-.08,.96,.24,1.18,.86,2.08,1.18-.19,1.43,.54,2.37,.66v.76h.66v-.66c.14,.22,.17,.12,.09,.38,.23,.48,.85,1.96,1.8,1.7-.07,.81,.26,1.47-.09,2.08-.19-.5-.48-.42-.76-.57l-.28,.28c.08,.05,.05,.01,0,.09v.28c.31-.05,.63,.06,.86,.28-.2,.19-.1,.04-.19,.38l1.04,.28c-.03-.13-.06-.25-.09-.38,1.01,.78,.91,2.42,2.27,3.03-.65,.7,.06,1.36-.28,1.99-.28-.19-.5,.03-.86-.09,0,1.02,.18,1.37-.09,1.89h-.28c-.22-.34-.23-.08-.19-.47h-.39c-.18,.34-.14,.21-.47,.38,.03,.19,.06,.38,.09,.57,.2-.18,.07-.05,.38-.09-.01,.46-.19,.84,.19,.66,.28,.53,1.29,.91,1.71,1.8,.37-.14,.16-.25,.38-.09,.28,.18,0,.02,.19,.28,.5-.05,.99-.21,1.42-.47,.44,.54,1.04,.94,1.71,1.14-.23,.46-.14,2.84,.38,3.41-.38,.52-.58,1.15-.57,1.8-.03,.02,.37,.55,.28,.66,.14,.16,.38,.03,.19,.28,1.44,1.65,4.68,2.61,4.55,2.65,1.29,.45,3.76-.41,4.36,.86-.33-.11-2.83-.33-2.65,.09l.09,.57c4.08,.03,4.05-1.9,5.31-2.18,1.06-.23,3.94-.31,4.83-.85,.48-.29,.93-1.17,1.8-1.42-.06-1.12-.29-3.11,.09-3.98l-.57-.38,.38-.19c.18,.28,.02,0,.28,.19l-.09-.19,.09-.47h-.28c-.18,.26-.02,.05-.38,.19-.07-.37-.04-.06-.28-.38l.19-.85c-.36,.06-.84,.07-.95,.19-.92,.56,.01,1.64-.57,2.46v-.19c-.06-.88-.13-1.77-.19-2.65-1.27-3.74,.55-3.47-2.08-5.59-.55-.32-1.22-.36-1.8-.09l-.47,.66c.1,.24,.17,.5,.19,.76,.57-.18,.28-.16,.86-.47v.28c-.27,.13-.08,.33-.47,.28-.42,.75-1.85-1.26-2.37-2.08h.19c.93-1.61,2.62-.16,3.41-.38,1.77-.49,4.74,4.02,5.12,4.93l.28,.95c.75,.8,.87,2.4,1.23,3.22l-.09,.28c.09,.15,1.36,5.09,.76,5.68l.09-.19-.28-.28c-.23,.14-.49,.21-.76,.19,.03,.47,0,.16-.28,.38,.13,.27,.22,.56,.28,.85h-1.05c.03,.32,.06,.63,.09,.95l.09-.09,.66-.19c.04,.55,.63,.77,.95,.86-.49,.77-.16,1.83-.09,2.46l-.47-.38c.02,.39-.1,.06-.09,.38-.91-.21-.63-.62-1.42-.95-.87-.36-8.28,1.71-8.53,1.89l-.66,1.14-.28-.09v-.66h.19l-.09-.19c.44-.22,.58-.03,.95-.57l-.28-.19-.95-.09c0,.31,.16,.23-.09,.47-.43,.19-.87,.35-1.32,.47-.5-.99-1.35-.1-1.9-.19,.09,.3,.3,.28,0,.47-.46,.67-1.36,.77-2.37,.47,.14,1.04-1.22,1.61-1.61,2.65-1.61-.07-5.88,.07-5.87,1.8-.47-.15-.92-.37-1.32-.66l.19-.19,.47,.19v-.57c.37,.13,.2,.17,.57,0-.27-.63,.05-.86,.38-1.32,.03-.87-.04-3.12-.28-3.41,0-.21,.16-.02,.19-.09,.06-.3,.63-.2,1.04-.95h-.28c-.15,.22,0,.05-.38,.09l.66-.66h-.19c-.01-.21,.04-.11-.09-.19-.4-.1-.83-.1-1.23,0,.59-.86,1.19-.7,1.52-1.23-.34-.25-.04-.38-.09-.95l-.28,.09c.07-.31,.11-.63,.09-.95l-.47,.09,.09,.38c-.33-.15-.68-.24-1.04-.28l.86,.86h-.38l.09,.38h-.57c-.17-.99-.79-.09-1.23-.57-.35-.38-.04-.55-.47-.76-.17,.25,.02,.21-.47,.28,.14,.34,.2,.59,0,.86l.57,.38c-.15,.43-.4,.4-.57,.57,.41,.24,.36,.38,.47,.95-.34-.24-.45-.43-.76-.47v-.66c-.72-.13-.47-.21-.95-.47l.57,1.61-.66-.09,.09,.19c-.01,.33,.33,1.01-.28,1.61v-.57c-.58,.13-1.19,.06-1.72-.2-.03,.16-.06,.31-.09,.47,.7,.23,.77,.38,.76,.95l-.19,.09c-.8-.3-1.58,.25-1.89-.57l-.28,.57c.59,.19,.28,.69,.76,1.42,.29-.22,.67-.56,.57,0l.57,.09c-.11,.14-.27,.45-.38,.38l-.09,.19v-.19c-.21-.19-.22-.23-.19-.47l-.95,.28c-.02-.57-.19-1.12-.47-1.61-.07-.28-.03-.28-.57-.38-.38,.48-.55,.32-.76,.86,.33,.19,.23,.64,.47,1.04h-.28c-.16-.36-.27-.89-.86-1.04v.09c.11,.43,.11,.89,0,1.32-.36-.04-.12,.11-.38-.09-.15-.08-.47-.15-.38-.47-.27,.11-.14,.08-.38,.09v.47c.78-.01,1.06,1.56,1.23,2.18l-.76-.09c.05,.42-.01,.85-.19,1.23h-.08c-.04-.7-.03-.65-.28-1.04h-.28l-.38,.28c.16,.48,.21,.93-.09,1.04-.27-.83-1.45,.37-1.8,.28v.85l-.09-.38c-.23-1.31-2.18-.75-2.84-.38-.08-1.69-.33-3.38-.76-5.02-.26-.78,.42-1.51,.19-2.75-.76,.11-1.53-.13-2.08-.66,.44-.5,1.01-.99,1.32-1.32v-.66c-.46,.3-.54,.68-.95,.47l-.57-.28c-.05,.17,.07,.27-.28,.38-.06-.35-.13-.69-.19-1.04l-.28,.09-.09,.86-.09-.19c-.49-2.72-4.06-1.95-4.17-5.49,.13-.02,.57,.03,.38-.28-.07-1-.03-1.67-.09-2.94l-.38-.09c-.12,.26-.39,.4-1.04,.38"/><path id="Path_933" class="cls-3" d="M113.75,44.14c.25,.32,.39,.73,.38,1.14l-.19-.09-.09,.19-.28-.47c.18-.12,.07-.5,.19-.76"/><path id="Path_935" class="cls-3" d="M113.56,53.04l.19,.38-.19,.09-.09-.09,.09-.38"/><path id="Path_936" class="cls-3" d="M111.76,54.74l.28,.09c-.21,.37,0,.42-.57,.57v-.38c.27-.05,.01,.01,.28-.28"/><path id="Path_938" class="cls-3" d="M106.92,61.56h.28v.09c-.3-.05-.09,.13-.28-.09"/><path id="Path_939" class="cls-3" d="M107.21,61.66h.19c.05,.18,.05,.22,.28,.19l-.09,.38-.19-.09-.19-.47"/><path id="Path_940" class="cls-3" d="M107.68,62.13l.09,.19h-.19l.09-.19"/><path id="Path_941" class="cls-3" d="M105.69,62.51c-.04,.09,.08,.06-.09,.19l.09-.19"/><path id="Path_942" class="cls-3" d="M108.44,62.79c.25,.13,.08,.05,0,.28v-.28Z"/><path id="Path_943" class="cls-3" d="M107.49,62.89l.19,.19-.19-.19"/><path id="Path_944" class="cls-3" d="M106.36,62.98l.38,.09-.28,.47c-.03-.06-.06-.13-.09-.19v-.38Z"/><path id="Path_945" class="cls-3" d="M107.4,63.17c-.04,.09,.08,.06-.09,.19l.09-.19"/><path id="Path_946" class="cls-3" d="M107.11,63.36l.28,.19-.28-.19"/><path id="Path_947" class="cls-3" d="M108.44,63.36l.09,.19-.09-.19"/><path id="Path_948" class="cls-3" d="M108.63,63.36l.09,.19-.09-.19"/><path id="Path_949" class="cls-3" d="M105.69,63.46l.09,.19-.09-.19"/><path id="Path_950" class="cls-3" d="M105.5,63.74l.09,.19-.09-.19"/><path id="Path_952" class="cls-3" d="M106.92,63.84h.19c-.17,.09-.02,.09-.19,0"/><path id="Path_953" class="cls-3" d="M109.1,64.03h.57v.28l-.19-.09c-.25,.22-.48,.16-.76-.09l.38-.09"/><path id="Path_954" class="cls-3" d="M108.44,64.21v.57h-.19l.19-.57"/><path id="Path_955" class="cls-3" d="M107.97,64.78h.28v.09l-.38,.09,.09-.19"/><path id="Path_957" class="cls-3" d="M108.72,65.73c.29,.12,.11,0,.28,.19h-.09l-.19-.19"/><path id="Path_958" class="cls-3" d="M114.03,66.58l.09,.19-.09-.19"/><path id="Path_959" class="cls-3" d="M116.11,71.03h.38l-.09,.19c-.27-.05-.47,.08-.28-.19"/><path id="Path_960" class="cls-3" d="M116.59,71.22c-.02,.14,.04,.09-.09,.28,.03-.09,.06-.19,.09-.28"/><path id="Path_961" class="cls-3" d="M119.05,76.91l.19,.19h-.28c.03-.06,.06-.13,.09-.19"/><path id="Path_962" class="cls-3" d="M119.34,77.19l.19,.28-.38-.19,.19-.09"/><path id="Path_963" class="cls-3" d="M119.53,77.47v.28l-.19-.19,.19-.09"/><path id="Path_964" class="cls-3" d="M119.53,77.76l.09,.19-.09-.19"/><path id="Path_965" class="cls-3" d="M119.72,77.85l.19,.28-.09,.19-.38-.09c.35-.19,.16,.04,.28-.38"/><path id="Path_966" class="cls-3" d="M118.77,77.95c.2,.19,.1,.04,.19,.38h-.09l-.19-.28,.19,.09-.09-.19"/><path id="Path_967" class="cls-3" d="M119.9,78.23h.19l-.28,.19,.09-.19"/><path id="Path_968" class="cls-3" d="M118.58,78.33l.19,.19-.19-.19"/><path id="Path_970" class="cls-3" d="M120.09,78.33l.09,.19-.09-.19"/><path id="Path_971" class="cls-3" d="M119.05,78.42l.28,.09-.19,.09c-.03,.09-.06,.19-.09,.28l-.19-.19,.19-.28"/><path id="Path_972" class="cls-3" d="M118.2,79.46l.09,.19-.09-.19"/><path id="Path_973" class="cls-3" d="M118.29,79.65l.28,.38-.28-.09v-.28Z"/><path id="Path_974" class="cls-3" d="M118.48,80.13h.19c-.17,.09-.02,.09-.19,0"/><path id="Path_975" class="cls-3" d="M118.67,80.22l.28,.66-.19-.09c-.03-.19-.06-.38-.09-.57"/><path id="Path_976" class="cls-3" d="M139.99,82.02l.19,.19-.19,.19v-.38Z"/><path id="Path_977" class="cls-3" d="M140.94,83.06l.09,.19-.09-.19"/><path id="Path_978" class="cls-3" d="M143.02,90.07l.57,.09c.12,1.17,.47,2.89-.28,3.5v-.38c.41-.27,.2-1.92,.09-2.84-.41-.18-.39-.04-.38-.38"/><path id="Path_979" class="cls-3" d="M118.96,91.68c.03,.13,.06,.25,.09,.38l-.19-.19,.09-.19"/><path id="Path_980" class="cls-3" d="M117.63,92.72h.28l-.19,.19-.09-.19"/><path id="Path_981" class="cls-3" d="M115.17,93.01l.09,.19-.09-.19"/><path id="Path_982" class="cls-3" d="M117.44,93.01h.19c-.17,.09-.02,.09-.19,0"/><path id="Path_983" class="cls-3" d="M114.98,93.86l.09,.28h-.09v-.28Z"/><path id="Path_984" class="cls-3" d="M118.58,94.14l.28,.09-.09,.28c-.37-.05-.09,.08-.38-.09l.19-.28"/><path id="Path_985" class="cls-3" d="M142.74,95c.29,.18,.1,.03,.19,.28l-.19-.28"/><path id="Path_986" class="cls-3" d="M142.74,95.28l.19,.09c-.05,.81-.31,1.48-.95,1.51v-.28c.54-.35,.57-.93,.76-1.32"/><path id="Path_987" class="cls-3" d="M118.2,95.56h.19c-.17,.09-.02,.09-.19,0"/><path id="Path_988" class="cls-3" d="M131.56,95.75l.09,.19h-.19l.09-.19"/><path id="Path_989" class="cls-3" d="M112.42,96.13l.09,.19-.09-.19"/><path id="Path_990" class="cls-3" d="M141.6,96.98v.86l-.19-.09v-.47c.19-.17,.07,0,.19-.28"/><path id="Path_991" class="cls-3" d="M141.41,97.84c.18,.21,.22,.51,.09,.76h-.09l-.09-.19,.09-.57"/><path id="Path_992" class="cls-3" d="M111.09,98.03h.19l-.19,.19v-.19Z"/><path id="Path_993" class="cls-3" d="M141.32,98.59l.19,.09c0,.6-.22,1.58-.47,1.42l-.19,.09-.19-.66c.3-.03,.37-.53,.66-.95"/><path id="Path_994" class="cls-3" d="M116.4,101.06l.28,.19-.28-.19"/><path id="Path_995" class="cls-3" d="M116.3,101.15c.47,.31,.85,.21,1.14,.47-.23,.19-.04,.05-.28,.09-.26,.24-.46,.02-.86,.19v.57c-.7,.11-1.35,.41-1.89,.86l.19,.57c-.51,.05-.67,.35-1.14,.76h-.37l-.28-.66c.26-.1,.06,.01,.09-.38,1.16-.68,2.26-1.44,3.32-2.27,.03-.06,.06-.13,.09-.19"/><path id="Path_996" class="cls-3" d="M119.91,102.86c.55,.31,.25,.89,.19,1.42,.44-.19,.83-.48,1.14-.85,.03,.06,.06,.13,.09,.19,.36,.7,.52,1.49,.47,2.27,.71,.39,1.45,.61,1.71,1.61,.48-.02,.94-.19,1.32-.47v.66h.47c0-.61-.09-1.22-.28-1.8l.47,.09c.11,1.09-.02,2.19-.38,3.22-3.81,.1-9.29-.42-10.99,1.52,.02,.12,.18,.8-.09,.57-.14,.04-2.49-1.22-2.18-1.99l-.09-.19c.87-.22,1.76-.29,2.65-.19-.06-.54,2.41-3.84,3.03-4.17,.05,.26,0,0,.19,.19,.06-.53,.04-.73,.38-1.04,.79,.08,1.54-.33,1.89-1.04"/><path id="Path_997" class="cls-3" d="M111.76,104.09c.65,.01,.79,.07,1.04,.38l-.09,.19c-.34-.01-.67,.09-.95,.28-.01-.17-.08-.34-.19-.47,.2-.27,.14-.12,.19-.38"/><path id="Path_998" class="cls-3" d="M111,104.37l.19,.19-.19-.19"/><path id="Path_999" class="cls-3" d="M110.81,104.66h.28c.13,.55,.35,.59-.09,.76-.22,.42-1.04,.41-1.61,.28l.19-.57c.65,.03,.69,.08,1.14-.19l.09-.28"/><path id="Path_1000" class="cls-3" d="M108.44,105.41c.41,.16,.25,.06,.47,.38l-1.14,.57v-.28c.35-.09,.41-.23,.66-.66"/><path id="Path_1001" class="cls-3" d="M124.74,106.74c.03,.06,.06,.13,.09,.19-.03-.06-.06-.13-.09-.19"/><path id="Path_1002" class="cls-3" d="M139.33,107.12l.66,.47-.28,.19,.09-.19c-.35-.02-.39-.13-.47-.47"/><path id="Path_1003" class="cls-3" d="M139.99,107.69l.19,.19-.09,.09-.19-.09v-.09l.09-.09"/><path id="Path_1004" class="cls-3" d="M140.37,108.07l.09,.19-.09-.19"/><path id="Path_1005" class="cls-3" d="M140.37,108.35l.76,1.04-.19,.19c-.36-.22-.43-.12-.86-.19,.19-.31,.29-.67,.28-1.04"/><path id="Path_1006" class="cls-3" d="M139.99,109.49l.28,.19c-.03,.09-.06,.19-.09,.28l-.28-.28h.19l-.09-.19"/><path id="Path_1007" class="cls-3" d="M130.23,109.58h.66v.47c-.56-.16-.37-.1-.66-.47"/><path id="Path_1008" class="cls-3" d="M141.13,109.77c.27,.14,1.87,2.94,1.32,3.5-.13,1.33-2.39,1.08-3.79,.86l-1.42,.19c-1.48-.45-2-1.06-3.41-1.42l.66-.47v-.28l-.47-.47,.19-.09c1.01,.4,2.84-.13,3.32,0,.17,.39,.4,.26,.28,.86,.64-.02,.51-.05,.95-.38,.36-.4,.88-.61,1.42-.57v-.76c.61-.07,.54,0,.86-.28,.05-.22,.08-.44,.09-.66"/><path id="Path_1010" class="cls-3" d="M139.71,109.96l.28,.09v.28c-.08,.01-.19,0-.09,.09l-.38-.09,.19-.38"/><path id="Path_1011" class="cls-3" d="M139.33,110.53h.28v.28c-.19,.08-.38,.14-.57,.19l.09-.28,.19-.19"/><path id="Path_1013" class="cls-3" d="M131.27,110.91l.09,.19-.09-.19"/><path id="Path_1014" class="cls-3" d="M131.56,110.91c.5,.14,1,.09,1.23,.76-.23,.17-.16,.1-.28,.38l-1.14-.85,.19-.28"/><path id="Path_1015" class="cls-3" d="M138.76,111l.38,.19h-.19l-.19,.28-.28-.19,.28-.28"/><path id="Path_1016" class="cls-3" d="M138.1,111.38l.38,.38-.19-.09c-.2-.07-.08,.09-.19-.09-.12-.14-.02,0,0-.19"/><path id="Path_1017" class="cls-3" d="M133.84,111.85l.19,.19-.19-.19"/><path id="Path_1018" class="cls-3" d="M137.91,111.85h.19c-.17,.09-.02,.09-.19,0"/><path id="Path_1019" class="cls-3" d="M133.07,112.14h.19l-.19,.28v-.28Z"/><path id="Path_1020" class="cls-3" d="M133.36,112.23c.24,.27,.34,.18,.09,.47l.09-.19c-.24-.05-.03,.06-.28-.09l.09-.19"/><path id="Path_1021" class="cls-3" d="M133.74,112.61c.03,.06,.06,.13,.09,.19h-.19l.09-.19"/><path id="Path_1022" class="cls-3" d="M112.51,113.18l.57,.19-.28,.47c-.52-.15-.56-.14-.86-.57l.57-.09"/></g></g></g></svg>