<?xml version="1.0" encoding="UTF-8"?><svg id="Connecticut" xmlns="http://www.w3.org/2000/svg" xmlns:xlink="http://www.w3.org/1999/xlink" viewBox="0 0 150 150"><defs><style>.cls-1{fill:none;}.cls-2{clip-path:url(#clippath);}.cls-3{fill:#491113;fill-rule:evenodd;}</style><clipPath id="clippath"><rect class="cls-1" x="4.19" y="20.71" width="141.62" height="108.58"/></clipPath></defs><g id="Group_1015" transform="translate(0.438 -0.458)"><g class="cls-2"><g id="Group_1014" transform="translate(-0.438 0.458)"><path id="Path_1065" class="cls-3" d="M96.15,20.17h.24l-.71,.59-.12-.35c.44-.06,.24,.08,.59-.24"/><path id="Path_1066" class="cls-3" d="M4.71,94.38v-6.6c3.66-.25,6.81-6.4,10.87-6.71l.35-.82c.49-.66,1.72-1.91,1.53-2.59,.86,0,2.98-.95,3.19-2,.27-.23,.1-.04,.12-.59v-.24l-.12-.35s-.73-3.44-1.42-3.53l.12,.35c-.66-.14-1.23-.58-1.53-1.18l.71-1.65c-.54,.17-1.12,.03-1.53-.35,.66-.44,.74-3.2,.12-4.36,4.74-.27,5.56-2.59,12.17-2.59l4.13,.12c1.83,.49,3.26,.08,4.25,.47,1.05,.41,2.24-.14,3.43,.59,.41,2.67,4.55,1.88,6.38,1.06,.9-.41,2.22,.17,3.54,0l3.78,.24,.12-.12c1.35-.16,2.65-.64,3.78-1.41,.14-.12,.62-.56,.83-.24,1.01-1.09,3.61-4.48,5.55-4.48,.26,.89,2.36-.04,2.6,0,.23-1.44,.31-2.9,.24-4.36l.12-.12c-.27-.6-.83-1.88-.59-2.59-.33-.07-.76-.58-1.18-.47l.35-.71c.34-.4,1.03-.62,.95,.12h.59c.09-.53,1.17-.78,1.06-.94,.33-.22,.07-.6,0-1.18,.67-.12,.47-.7,1.3-.59l.12-.59c-.08,0-.44,.06-.24-.12-.49,.15-1.32,.65-1.42,1.06-.43-.1-.8-.35-1.06-.71l.12-.24,1.42-.59v-.47h-.47c-.28,.25,.02,.1-.35,.12v-.12c.36-.26,.4-.27,.47-.71-.61,.18-2.32-.15-2.13,.47-.38,.31-.25,.3-.35,.82h.35c.11-.29,.41-.42,1.06-.47-.38,.51-.7,1.07-.95,1.65l-.35-.35c.33-.51-1.42-2.42-1.77-2.94l.24-.12c.44-1.8,5.69-3.27,6.73-4.83l-.24,.12-.71,.24-.12-.35,.24-.47-.59-.12h.24c.43-.52,1.36-.23,1.65-.59,.48,.25,.18,.06,.47,.47,.92-1.01,1.95-1.92,3.07-2.71-.21-.37-.46-.76-.24-1.06,.03-.36,1.66-2.77,2.72-3.18,0,0,1.93-2.47,2.6-2.59h.12c.43-.54,.52-.65,1.06-1.3l.35-.35c.02,.26,.05,.24,.24,.12,.78-.51,.73-1.38,1.65-2,.66-.45,2.67-.59,2.72-1.06l.24-.12h.12c.03-.17-.08-.33,.24-.47l.35-.12c.37-.07,.05,.08,.35-.12,.11-.09,.23-.17,.35-.24h.35c.06,.33,0,0,.24,.24l.59-.82c.28,.44,.14,.17,.59,.35l-.12-.82,1.18,.35,.12-.47c-.12,0-.03,0,0-.12,.06-.13,.34-.74,.47-.35h19.61l6.86-.12c.05,1.23-.46,4.16-.35,4.24,.14,.86,.52,.49,.59,1.53-1.02,.53-.25,3.88-1.06,4.59,.26,.35,2.23,2.96,1.89,3.89-.25,.69-1.33,3.7-.47,4.59-1.31,1.46-2.06,3.34-2.13,5.3,.12,.16,.24,.31,.35,.47,.27,.02,.02,1.8-.12,2,.18,.39,1.44,3.95,1.06,4.95-.7,1.22-1.11,2.6-1.18,4.01,.47-.17,.61,.03,.59-.59,.29-.25,.17-.18,.12-.71,.81,.06,.81-.41,1.65,.24-.1,.95,.65,1.17,.83,1.65-.16,4.75-.31,9.5-.47,14.25-.29,1.44,.38,5.05,.24,5.3-.79,.46-1.2,5.33-1.77,6.48-2.26,4.51-2.55,9.91-2.72,18.85-.2,3.18-.39,6.36-.59,9.54,.4,.03,.87,1.13,.95,1.65l-4.13,2.59v.12l1.42,2c-.19,.41,.06,.45-.24,.71v.12c-.12,.86-1.41,.85-1.77,1.41-.27,.42-.14,1.41-.47,2l-.12-.59h-.35c-.04,.24-.08,.47-.12,.71,.44,.22,.36,.14,.47,.59-.29,.14-.12-.08-.24,.24,.41,0,.67-.1,.59,.35,.69-.64-.15-1.19,.71-1.3,.11-.5,.05-.57,.47-.94h.12l.71,.82h.12c.02-.97,.05-1.04,.47-1.53,.52-.02,.78-.44,1.18-.12l.35-.12c0,.33,.09,.65,.24,.94l.35-.12,.59-.71c-.57-.28-.24-.52-.35-.82l.35-.12c.24,.36,.12,.2,.71,.24v.82l1.53-.12c-.08-.56,2.77-.12,3.78-.59-.08-.31-.16-.63-.24-.94,7.25,.16,11.47-.12,14.29-4h.12c.08,.16,.16,.31,.24,.47-.41,.22-.32,.1-.47,.59l.59-.12c.02,.69-.13,.56,.47,.82,.08-.36-.12-.18,.36-.35v.24c-.15,.15-.12,.53-.24,.94l-.35-.12c.04,.31,.08,.63,.12,.94l.24-.12s.71-.17,.59-.35c.29-.21,.23-.36,.59-.59,.3,.36,.11,.41,.47,.12l.71-.24c.19,.18-.02,.04,.24,.12,.09,.64,.13,.95,.59,1.06,.74,0,1.58-.82,2.25-1.18,.23,.35,.03,0,.35,.24l.12-.47-.24-.24c.65-.19,1.33-.27,2.01-.24-.8,1.19-5.88,2.86-5.91,2.83l-.12,.12-.24,.12-.47,.35-4.61,2.36s-.27,.06-.12,.12c-2.21,1.3-4.57,.88-5.91,2.12-1.16,1.08-8.09,3.21-8.98,2.36-.64,.68-2.99,1.28-4.13,1.41,.13-.33,.1-.17,.12-.47,.49-.1,.12,.09,.35-.35-.65,.04-.58-.05-1.18-.35-.28,.25,.02,.1-.35,.12-.01,.22-.1,.42-.24,.59h1.18c-.29,.23-.05,.07-.35,.12-.05,.3,.09,.16-.24,.24-1.43-.83-5.05,.54-5.2,.59,.02-.77,.03-.4-.35-.71-.21,.44-1.19,.43-1.42,.24-.22-.17,.04-.06-.12-.71-.63,.13-.21-.12-.71-.12v-.59c.27-.06,.61,0,.47-.47l.12-2.47c1.15-3.01,2.49-3.46,2.48-9.89l-.59,.24c.36-1.1-.43-1.38-1.18-1.88v.59c.38,.32,1.88,4.23,1.18,5.42-.95-1.6-3.71-1.69-5.08-3.06-1.98-2-4.72-3.03-6.97-4.48-.31-.2-1.44-.43-1.65-.71-.6-.76-.62-1.21-1.3-1.77l-.71,.12c-.06-.38,.04-.27-.35-.59-.42,.19-.92,.15-1.3-.12-2.02-.94-2.01-2.15-3.43-3.77,.43-.59,.59-1.85,.12-2.12,.19-.4,.5-1.78-.12-1.53-.12-.3-.12-.17-.47-.35l.47-.94-.71-.12c.04-.2,.08-.39,.12-.59-.72-.09-1.23,.12-1.06-.71-.47,.15-.94,.26-1.42,.35l-.35-.24c-.04-.67-.08-1.33-.12-2-.41,.08-.41,.17-.71-.12-.51-.38-.44-.58-.59-1.06l-78.45,.12"/><path id="Path_1067" class="cls-3" d="M89.88,21.35l.24,.24-.24-.24"/><path id="Path_1068" class="cls-3" d="M90.95,21.35h.24c-.21,.11-.03,.11-.24,0"/><path id="Path_1069" class="cls-3" d="M89.65,21.47c-.05,.11,.09,.08-.12,.24l.12-.24"/><path id="Path_1070" class="cls-3" d="M90.36,21.58l.12,.24-.12-.24"/><path id="Path_1071" class="cls-3" d="M72.87,36.9c.04,.12,.08,.24,.12,.35h-.12l-.12-.12,.12-.24"/><path id="Path_1072" class="cls-3" d="M70.04,38.31h.35v.35c-.4,.26-.73,.63-.95,1.06l-.71-.24v-.59h.24c.2-.35,.71-.22,1.06-.59"/><path id="Path_1073" class="cls-3" d="M66.38,41.02l.47,.59-.83,.12v-.24h.24c0-.17,.03-.33,.12-.47"/><path id="Path_1074" class="cls-3" d="M64.96,44.43c.58,.12,.18,.02,.47,.35h-.24l.12,.24-.47,.12c.04-.24,.08-.47,.12-.71"/><path id="Path_1075" class="cls-3" d="M64.37,47.73h.35l-.59,.82-.35-.35c.36-.18,.34,.04,.59-.47"/><path id="Path_1076" class="cls-3" d="M66.02,47.85l.24,.24-.24-.24"/><path id="Path_1077" class="cls-3" d="M65.9,48.09l.24,.24-.24-.24"/><path id="Path_1078" class="cls-3" d="M65.55,48.2c.36,.19,.23-.1,.47,.35-.26,0-.04-.01-.12,.24l-.59-.12,.24-.47"/><path id="Path_1079" class="cls-3" d="M63.66,48.44l.24,.24-.24-.24"/><path id="Path_1080" class="cls-3" d="M67.56,48.44c.33,.14,.06,.04,0,.35l-.24-.24,.24-.12"/><path id="Path_1081" class="cls-3" d="M143.88,111.1c.04,.12,.08,.24,.12,.35h-.35l-.35-.24c.56-.02,.35,.14,.59-.12"/><path id="Path_1082" class="cls-3" d="M142.81,111.34c.43,.08,.36,.05,.59,.24l-1.3,.59,.24-.24-.12-.35c.25,.04,.8,.35,.59-.24"/><path id="Path_1084" class="cls-3" d="M139.62,113.46h.24l-.35,.24c.04-.08,.08-.16,.12-.24"/><path id="Path_1085" class="cls-3" d="M139.15,113.57l.24,.24-.35,.12,.12-.35"/><path id="Path_1086" class="cls-3" d="M138.2,114.16h.36l-.47,.71c-.72,.02-.57-.02-.71-.12h-.24c.31-.46,.69-.27,1.06-.59"/><path id="Path_1088" class="cls-3" d="M140.33,114.99c.36,.32,.35,.7,.95,.59-.17,.76,.04,.68-.47,1.06-.02-.55,.14-.35-.12-.59-.2-.28-.32-.03-.59-.47,.46-.05,.21,.04,.24-.59"/><path id="Path_1089" class="cls-3" d="M137.73,117.11l.12,.24h-.24l.12-.24"/><path id="Path_1090" class="cls-3" d="M117.88,119.11l.71,.59c-.57-.02-.54-.07-.95,.24v-.36l.24-.47"/><path id="Path_1091" class="cls-3" d="M115.29,119.94l.24,.24-.24-.24"/><path id="Path_1092" class="cls-3" d="M111.27,122.29c.04,.08,.08,.16,.12,.24-.04-.08-.08-.16-.12-.24"/><path id="Path_1093" class="cls-3" d="M105.59,126.18c.35,.37,.14,1.03,.59,.82-.19,1.68-2.73,2.77-3.66,2.83v-.24c.49-.37,.02-.91,.59-1.06,.27-.44,.22-1.49,.83-2,.14-.16,1.12-.06,1.65-.35"/><path id="Path_1094" class="cls-3" d="M108.55,128.18c.24,.21,.08,0,.24,.35h-.24v-.35Z"/><path id="Path_1095" class="cls-3" d="M108.2,128.3l.24,.24-.24-.24"/><path id="Path_1096" class="cls-3" d="M108.2,128.53l.24,.24-.24-.24"/><path id="Path_1097" class="cls-3" d="M104.65,128.89l.12,.24-.12-.24"/></g></g></g></svg>